<?xml version="1.0" encoding="UTF-8"?>
<svg xmlns="http://www.w3.org/2000/svg" xmlns:xlink="http://www.w3.org/1999/xlink" width="26px" height="26px" viewBox="0 0 26 26" version="1.1">
<g id="surface1">
<path style=" stroke:none;fill-rule:nonzero;fill:rgb(90.196078%,90.196078%,90.196078%);fill-opacity:1;" d="M 25.964844 10.019531 C 25.875 9.75 25.636719 9.554688 25.351562 9.523438 L 17.03125 8.679688 L 13.660156 1.03125 C 13.542969 0.769531 13.285156 0.601562 13 0.601562 C 12.714844 0.601562 12.457031 0.769531 12.339844 1.03125 L 8.964844 8.679688 L 0.648438 9.523438 C 0.363281 9.554688 0.125 9.75 0.0351562 10.019531 C -0.0546875 10.292969 0.0273438 10.589844 0.242188 10.78125 L 6.472656 16.355469 L 4.707031 24.527344 C 4.648438 24.804688 4.757812 25.09375 4.988281 25.261719 C 5.113281 25.351562 5.261719 25.398438 5.410156 25.398438 C 5.535156 25.398438 5.660156 25.367188 5.773438 25.300781 L 13 21.09375 L 20.226562 25.300781 C 20.472656 25.441406 20.78125 25.429688 21.011719 25.257812 C 21.242188 25.09375 21.355469 24.800781 21.292969 24.523438 L 19.527344 16.351562 L 25.761719 10.777344 C 25.972656 10.589844 26.054688 10.292969 25.964844 10.019531 Z M 18.253906 15.558594 C 18.058594 15.734375 17.972656 15.996094 18.027344 16.25 L 19.539062 23.234375 L 13.363281 19.640625 C 13.136719 19.507812 12.863281 19.507812 12.636719 19.640625 L 6.460938 23.234375 L 7.96875 16.25 C 8.023438 15.996094 7.9375 15.734375 7.746094 15.558594 L 2.417969 10.796875 L 9.527344 10.074219 C 9.785156 10.046875 10.007812 9.882812 10.113281 9.648438 L 13 3.109375 L 15.882812 9.648438 C 15.988281 9.882812 16.210938 10.046875 16.46875 10.074219 L 23.582031 10.796875 Z M 18.253906 15.558594 "/>
</g>
</svg>
